<svg width="20" height="20" viewBox="0 0 20 20" fill="none" xmlns="http://www.w3.org/2000/svg">
<path d="M12.9937 2.52266C12.2335 1.70195 11.1718 1.25 9.99992 1.25C8.82179 1.25 7.75656 1.69922 6.99992 2.51484C6.23507 3.33945 5.86242 4.46016 5.94992 5.67031C6.12335 8.05781 7.94015 10 9.99992 10C12.0597 10 13.8734 8.0582 14.0495 5.67109C14.1382 4.47187 13.7632 3.35352 12.9937 2.52266Z" fill="#62666E"/>
<path d="M16.8749 18.749H3.12492C2.94494 18.7514 2.76671 18.7136 2.60319 18.6383C2.43966 18.5631 2.29496 18.4524 2.17961 18.3143C1.9257 18.0107 1.82336 17.5963 1.89914 17.1771C2.22882 15.3482 3.25773 13.8119 4.87492 12.7334C6.31164 11.776 8.13156 11.249 9.99992 11.249C11.8683 11.249 13.6882 11.7764 15.1249 12.7334C16.7421 13.8115 17.771 15.3479 18.1007 17.1768C18.1765 17.5959 18.0741 18.0103 17.8202 18.3139C17.7049 18.4521 17.5602 18.5629 17.3967 18.6382C17.2332 18.7134 17.0549 18.7513 16.8749 18.749Z" fill="#62666E"/>
</svg>
