<svg width="56" height="48" viewBox="0 0 56 48" fill="none" xmlns="http://www.w3.org/2000/svg">
<g clip-path="url(#clip0_15078_6316)">
<mask id="mask0_15078_6316" style="mask-type:luminance" maskUnits="userSpaceOnUse" x="0" y="0" width="56" height="48">
<path d="M56 0H0V48H56V0Z" fill="white"/>
</mask>
<g mask="url(#mask0_15078_6316)">
<path opacity="0.5" d="M8 6C8 2.68629 10.6863 0 14 0H50C53.3137 0 56 2.68629 56 6V42C56 45.3137 53.3137 48 50 48H14C10.6863 48 8 45.3137 8 42V6Z" fill="#3B3B5E"/>
<path d="M41.9624 21.8157C44.2824 22.4304 45.558 22.9232 45.7891 23.2942L45.8024 23.3419C45.7935 23.681 44.5135 24.1897 41.9624 24.868L37.2691 25.3767L34.2824 26.3942H33.4291L29.5224 31.9901H30.4424C30.6735 31.9901 30.8735 32.0139 31.0424 32.0616C31.2113 32.1093 31.2957 32.1702 31.2957 32.2444C31.2957 32.3186 31.2113 32.3795 31.0424 32.4272C30.8735 32.4749 30.6735 32.4988 30.4424 32.4988H29.1624H27.0291H26.1757V31.9901H27.0291V25.3767H24.8957L22.3357 28.9378H21.0557L20.6291 28.429V25.3767H21.0557V24.868H22.7624V24.7408L20.2024 24.3593V22.3244L22.7624 21.9429V21.8157H21.0557V21.307H20.6291V18.2547L21.0557 17.746H22.3357L24.8957 21.307H27.0291V14.6937H26.1757V14.1849H27.0291H29.1624H30.4424C30.6735 14.1849 30.8735 14.2088 31.0424 14.2565C31.2113 14.3042 31.2957 14.3651 31.2957 14.4393C31.2957 14.5135 31.2113 14.5744 31.0424 14.6221C30.8735 14.6698 30.6735 14.6937 30.4424 14.6937H29.5224L33.4291 20.2895H34.2824L37.2691 21.307L41.9624 21.8157Z" fill="white"/>
<path d="M0 20H1C3.20914 20 5 21.7909 5 24V25C5 27.2091 3.20914 29 1 29H0V20Z" fill="#00BF4A"/>
</g>
</g>
<defs>
<clipPath id="clip0_15078_6316">
<rect width="56" height="48" fill="white"/>
</clipPath>
</defs>
</svg>
