<svg width="24" height="18" viewBox="0 0 24 18" fill="none" xmlns="http://www.w3.org/2000/svg">
<g clip-path="url(#clip0_15078_6348)">
<path d="M22.2857 15.9545V6.1364C22 6.4432 21.692 6.7244 21.3616 6.9801C18.9688 8.7358 17.067 10.1761 15.6562 11.3011C15.2009 11.6676 14.8304 11.9531 14.5446 12.1577C14.2589 12.3622 13.8728 12.5689 13.3862 12.7777C12.8996 12.9865 12.442 13.0909 12.0134 13.0909H12H11.9866C11.558 13.0909 11.1004 12.9865 10.6138 12.7777C10.1272 12.5689 9.7411 12.3622 9.4554 12.1577C9.1696 11.9531 8.7991 11.6676 8.3438 11.3011C6.933 10.1761 5.0312 8.7358 2.6384 6.9801C2.308 6.7244 2 6.4432 1.7143 6.1364V15.9545C1.7143 16.0653 1.7567 16.1612 1.8415 16.2422C1.9263 16.3232 2.0268 16.3636 2.1429 16.3636H21.8571C21.9732 16.3636 22.0737 16.3232 22.1585 16.2422C22.2433 16.1612 22.2857 16.0653 22.2857 15.9545ZM22.2857 2.5185V2.3778V2.2053C22.2857 2.2053 22.2835 2.1499 22.279 2.0391C22.2746 1.9283 22.2612 1.875 22.2388 1.8793C22.2165 1.8835 22.192 1.8452 22.1652 1.7642C22.1384 1.6832 22.0982 1.6513 22.0446 1.6683C21.9911 1.6854 21.9286 1.6747 21.8571 1.6364H2.1429C2.0268 1.6364 1.9263 1.6768 1.8415 1.7578C1.7567 1.8388 1.7143 1.9347 1.7143 2.0455C1.7143 3.4773 2.3705 4.6875 3.683 5.6761C5.4062 6.9716 7.1964 8.3224 9.0536 9.7287C9.1071 9.7713 9.2634 9.897 9.5223 10.1058C9.7812 10.3146 9.9866 10.4744 10.1384 10.5852C10.2902 10.696 10.4888 10.8303 10.7344 10.9879C10.9799 11.1456 11.2054 11.2628 11.4107 11.3395C11.6161 11.4162 11.808 11.4545 11.9866 11.4545H12H12.0134C12.192 11.4545 12.3839 11.4162 12.5893 11.3395C12.7946 11.2628 13.0201 11.1456 13.2656 10.9879C13.5112 10.8303 13.7098 10.696 13.8616 10.5852C14.0134 10.4744 14.2188 10.3146 14.4777 10.1058C14.7366 9.897 14.8929 9.7713 14.9464 9.7287C16.8036 8.3224 18.5938 6.9716 20.317 5.6761C20.7991 5.3097 21.2478 4.8175 21.6629 4.1996C22.0781 3.5817 22.2857 3.0213 22.2857 2.5185ZM24 2.0455V15.9545C24 16.517 23.7902 16.9986 23.3705 17.3991C22.9509 17.7997 22.4464 18 21.8571 18H2.1429C1.5536 18 1.0491 17.7997 0.629499 17.3991C0.209799 16.9986 0 16.517 0 15.9545V2.0455C0 1.483 0.209799 1.0014 0.629499 0.6009C1.0491 0.2003 1.5536 0 2.1429 0H21.8571C22.4464 0 22.9509 0.2003 23.3705 0.6009C23.7902 1.0014 24 1.483 24 2.0455Z" fill="#9797AE"/>
</g>
<defs>
<clipPath id="clip0_15078_6348">
<rect width="24" height="18" fill="white"/>
</clipPath>
</defs>
</svg>
